# xmcd
#
# Track frame offsets: 
#        150
#        28565
#        50650
#
# Disc length: 1066 seconds
#
# Revision: 3
# Processed by: cddbd v1.5.2PL0 Copyright (c) Steve Scherf et al.
# Submitted via: ExactAudioCopyFreeDBPlugin 1.0
#
DISCID=1f042803
DTITLE=Manchild - Nothing Without Me CD2
DYEAR=2001
DGENRE=Dance
TTITLE0=Nothing Without Me (Full Version)
TTITLE1=Nothing Without Me (Spike's Dub Mix)
TTITLE2=Nothing Without Me (Jean Jaques Smoothie Flick Knife Mix)
EXTD=ID3G:   3
EXTT0=
EXTT1=
EXTT2=
PLAYORDER=
